<svg xmlns="http://www.w3.org/2000/svg" xmlns:xlink="http://www.w3.org/1999/xlink" version="1.1" width="611px" height="611px" style="shape-rendering:geometricPrecision; text-rendering:geometricPrecision; image-rendering:optimizeQuality; fill-rule:evenodd; clip-rule:evenodd">
<g><path style="opacity:0.975" fill="#02ccfe" d="M 297.5,219.5 C 275.807,220.266 257.307,228.266 242,243.5C 236.146,251.235 230.313,258.902 224.5,266.5C 211.481,267.999 198.481,267.832 185.5,266C 166.872,259.505 160.372,246.671 166,227.5C 171.677,217.902 180.177,212.736 191.5,212C 207.844,211.833 224.177,211.333 240.5,210.5C 246.392,196.383 252.559,182.383 259,168.5C 268.195,155.987 280.361,151.487 295.5,155C 305.842,159.996 311.176,168.329 311.5,180C 308.517,193.782 303.851,206.949 297.5,219.5 Z"/></g>
<g><path style="opacity:0.972" fill="#06ccfd" d="M 435.5,219.5 C 416.402,220.825 397.402,220.825 378.5,219.5C 383.643,200.91 390.476,182.91 399,165.5C 406.393,154.761 416.56,150.928 429.5,154C 446.066,160.296 452.233,172.129 448,189.5C 444.509,199.813 440.342,209.813 435.5,219.5 Z"/></g>
<g><path style="opacity:0.985" fill="#fc6301" d="M 297.5,219.5 C 324.5,219.5 351.5,219.5 378.5,219.5C 397.402,220.825 416.402,220.825 435.5,219.5C 445.506,219.334 455.506,219.5 465.5,220C 485.72,225.278 492.886,238.111 487,258.5C 482.994,266.596 476.494,271.429 467.5,273C 459.401,274.46 451.235,275.293 443,275.5C 432.844,274.802 422.677,274.469 412.5,274.5C 393.264,273.175 373.931,273.175 354.5,274.5C 340.987,274.681 327.487,274.348 314,273.5C 307.494,273.917 300.994,274.417 294.5,275C 282.828,277.669 275.328,284.836 272,296.5C 266.82,309.521 261.654,322.521 256.5,335.5C 237.069,336.825 217.736,336.825 198.5,335.5C 206.892,312.386 215.558,289.386 224.5,266.5C 230.313,258.902 236.146,251.235 242,243.5C 257.307,228.266 275.807,220.266 297.5,219.5 Z"/></g>
<g><path style="opacity:0.985" fill="#03ccfe" d="M 412.5,274.5 C 410.711,282.702 408.211,290.702 405,298.5C 398.534,313.403 392.367,328.403 386.5,343.5C 370.986,373.273 346.319,388.94 312.5,390.5C 285.829,390.546 259.162,390.879 232.5,391.5C 213.167,390.167 193.833,390.167 174.5,391.5C 165.494,391.666 156.494,391.5 147.5,391C 134.134,389.636 125.634,382.469 122,369.5C 119.227,351.961 126.393,341.128 143.5,337C 161.802,335.631 180.135,335.131 198.5,335.5C 217.736,336.825 237.069,336.825 256.5,335.5C 274.162,336.294 291.829,336.461 309.5,336C 322.495,336.978 331.328,331.478 336,319.5C 341.627,304.251 347.793,289.251 354.5,274.5C 373.931,273.175 393.264,273.175 412.5,274.5 Z"/></g>
<g><path style="opacity:0.976" fill="#fc6301" d="M 312.5,390.5 C 346.319,388.94 370.986,373.273 386.5,343.5C 392.859,343.654 399.192,343.321 405.5,342.5C 411.487,343.142 417.487,343.642 423.5,344C 437.589,347.429 445.255,356.429 446.5,371C 444.865,387.302 435.865,396.302 419.5,398C 414,398.5 408.5,399 403,399.5C 391.831,398.297 380.664,398.297 369.5,399.5C 364.724,410.051 360.224,420.718 356,431.5C 346.827,454.177 330.993,461.01 308.5,452C 302.338,446.174 299.004,439.007 298.5,430.5C 301.377,416.537 306.043,403.203 312.5,390.5 Z"/></g>
<g><path style="opacity:0.97" fill="#fc6301" d="M 232.5,391.5 C 226.737,410.031 219.57,428.031 211,445.5C 202.667,456.248 191.834,459.748 178.5,456C 169.467,452.968 163.967,446.801 162,437.5C 161.211,431.763 161.544,426.097 163,420.5C 166.156,410.527 169.989,400.86 174.5,391.5C 193.833,390.167 213.167,390.167 232.5,391.5 Z"/></g>
</svg>